<svg xmlns="http://www.w3.org/2000/svg" xmlns:xlink="http://www.w3.org/1999/xlink" xmlns:inkscape="http://www.inkscape.org/namespaces/inkscape" version="1.1" width="314" height="26" viewBox="0 0 314 26">
<defs>
<path id="font_1_1" d="M.2939911 .64004519C.2939911 .66400149 .2939911 .6660156 .2709961 .6660156 .20899964 .60227969 .12098694 .60227969 .08898926 .60227969V.57128909C.10899353 .57128909 .16799927 .57128909 .21998596 .5972748V.07902527C.21998596 .042999269 .21699524 .0309906 .1269989 .0309906H.09498596V0C.12998963 .0029907227 .21699524 .0029907227 .25698854 .0029907227 .29699708 .0029907227 .38398744 .0029907227 .4189911 0V.0309906H.3869934C.29699708 .0309906 .2939911 .041992189 .2939911 .07902527V.64004519Z"/>
<path id="font_2_2" d="M.19198609 .2502594C.19198609 .2792511 .16799927 .30325318 .13899231 .30325318 .10998535 .30325318 .085998538 .2792511 .085998538 .2502594 .085998538 .22125244 .10998535 .19726563 .13899231 .19726563 .16799927 .19726563 .19198609 .22125244 .19198609 .2502594Z"/>
<path id="font_3_1" d="M.07499695-.12220764C.067993167-.15031433 .06599426-.15834046 .025985718-.15834046 .0129852299-.15834046-.0010070801-.15834046-.0010070801-.17933655-.0010070801-.19033814 .0079956059-.19433594 .0129852299-.19433594 .038986207-.19433594 .07199097-.19033814 .09899902-.19033814 .1329956-.19033814 .17098999-.19433594 .20399475-.19433594 .21299744-.19433594 .22399903-.19134522 .22399903-.17234802 .22399903-.15834046 .20999146-.15834046 .19799805-.15834046 .17599488-.15834046 .14898682-.15834046 .14898682-.14630127 .14898682-.14128113 .1559906-.11517334 .1599884-.100112918 .17199707-.046920778 .18598938 .007232666 .19699097 .049240114 .20899964 .02923584 .23999024-.009765625 .2999878-.009765625 .42199708-.009765625 .5569916 .12527466 .5569916 .27433778 .5569916 .39138795 .47599793 .44140626 .40699769 .44140626 .34498597 .44140626 .2919922 .3993988 .2649994 .37138368 .24798584 .42840577 .19198609 .44140626 .1619873 .44140626 .12298584 .44140626 .09899902 .41540528 .08299255 .38838197 .06298828 .35437013 .04699707 .29434205 .04699707 .28834535 .04699707 .27534486 .06098938 .27534486 .06399536 .27534486 .07798767 .27534486 .07899475 .27833558 .085998538 .3053589 .100997928 .3633728 .11999512 .4133911 .15899658 .4133911 .18499756 .4133911 .19198609 .39138795 .19198609 .36437989 .19198609 .3533783 .18998719 .34036256 .18899536 .33436585L.07499695-.12220764M.2639923 .32136537C.32199098 .39839173 .37199403 .4133911 .4039917 .4133911 .44299317 .4133911 .47698976 .38438417 .47698976 .31636048 .47698976 .27534486 .45498658 .17329407 .4249878 .11526489 .3999939 .06625366 .35099793 .018234253 .2999878 .018234253 .22898865 .018234253 .21099854 .09526062 .21099854 .105270389 .21099854 .10926819 .21299744 .11627197 .21398926 .120269779L.2639923 .32136537Z"/>
<path id="font_4_1" d="M.74398806 .2263794C.7599945 .2263794 .7839966 .2263794 .7839966 .25038148 .7839966 .27539063 .7609863 .27539063 .74398806 .27539063H.147995C.13198853 .27539063 .10798645 .27539063 .10798645 .25138856 .10798645 .2263794 .1309967 .2263794 .147995 .2263794H.74398806Z"/>
<path id="font_5_2" d="M.33499146 .63612368C.33499146 .6630554 .33299256 .6640625 .30499269 .6640625 .24099732 .6014404 .1499939 .6004486 .10899353 .6004486V.5644531C.1329956 .5644531 .19898987 .5644531 .2539978 .592453V.08203125C.2539978 .04899597 .2539978 .035995485 .1539917 .035995485H.115997318V0C.13398743 .0009918213 .25698854 .0039978029 .2939911 .0039978029 .32499696 .0039978029 .45098878 .0009918213 .47299195 0V.035995485H.43499757C.33499146 .035995485 .33499146 .04899597 .33499146 .08203125V.63612368Z"/>
<path id="font_5_3" d="M.5049896 .18203736H.47099305C.46798707 .16001892 .45799256 .100997928 .44499208 .09098816 .43699647 .084991458 .3600006 .084991458 .34599305 .084991458H.1619873C.2669983 .17803955 .3019867 .20603943 .3619995 .25306703 .43598939 .312088 .5049896 .374115 .5049896 .46914674 .5049896 .5900879 .39898683 .6640625 .2709961 .6640625 .14698792 .6640625 .06298828 .57710269 .06298828 .4851532 .06298828 .43414308 .10598755 .42915345 .115997318 .42915345 .13999939 .42915345 .16899109 .44615174 .16899109 .48214723 .16899109 .5001526 .1619873 .53515627 .10998535 .53515627 .14099121 .6060791 .20899964 .62805178 .2559967 .62805178 .35598756 .62805178 .4079895 .5501404 .4079895 .46914674 .4079895 .38212586 .34599305 .3130951 .31399537 .27708436L.07299805 .038986207C.06298828 .02999878 .06298828 .027999878 .06298828 0H.47499085L.5049896 .18203736Z"/>
<path id="font_5_1" d="M.46299745 .2263794H.7689972C.7819977 .2263794 .80599978 .2263794 .80599978 .25038148 .80599978 .27539063 .7829895 .27539063 .7689972 .27539063H.46299745V.5821533C.46299745 .59513857 .46299745 .6191406 .43899537 .6191406 .4139862 .6191406 .4139862 .5961304 .4139862 .5821533V.27539063H.10699463C.09399414 .27539063 .069992069 .27539063 .069992069 .25138856 .069992069 .2263794 .09298706 .2263794 .10699463 .2263794H.4139862V-.08114624C.4139862-.09416199 .4139862-.11816406 .43798829-.11816406 .46299745-.11816406 .46299745-.09516907 .46299745-.08114624V.2263794Z"/>
<path id="font_6_1" d="M.04499817-.122177127C.036987306-.15631104 .034988405-.16334534-.009002686-.16334534-.021011353-.16334534-.03201294-.16334534-.03201294-.18234253-.03201294-.19033814-.027008057-.19433594-.019012452-.19433594 .0079956059-.19433594 .036987306-.19134522 .06498718-.19134522 .09799194-.19134522 .13198853-.19433594 .1639862-.19433594 .16899109-.19433594 .18199158-.19433594 .18199158-.17434693 .18199158-.16334534 .17199707-.16334534 .1579895-.16334534 .10798645-.16334534 .10798645-.15631104 .10798645-.14727783 .10798645-.13523865 .1499939 .028259278 .15699768 .053268434 .16999817 .024261475 .19799805-.0107421879 .24899292-.0107421879 .36499024-.0107421879 .48999024 .13528443 .48999024 .28233338 .48999024 .37635804 .43299867 .4423828 .35699464 .4423828 .30699159 .4423828 .25898744 .40637208 .22599793 .36735536 .21598816 .42137147 .17298889 .4423828 .13598633 .4423828 .08999634 .4423828 .070999149 .4033661 .06199646 .38536073 .04399109 .35134889 .0309906 .29133607 .0309906 .28833009 .0309906 .27833558 .040985109 .27833558 .042999269 .27833558 .052993776 .27833558 .053985597 .2793274 .05999756 .30133058 .07699585 .37236024 .09700012 .42037965 .1329956 .42037965 .1499939 .42037965 .1639862 .41236878 .1639862 .37435914 .1639862 .35134889 .16099549 .3403473 .15699768 .323349L.04499817-.122177127M.22099304 .3123474C.22799683 .33935548 .25498963 .36735536 .272995 .38235475 .30799867 .41337586 .33699037 .42037965 .35398866 .42037965 .3939972 .42037965 .41799928 .38536073 .41799928 .32633973 .41799928 .26733399 .3849945 .15229798 .36698915 .11428833 .33299256 .044265748 .2849884 .011245728 .24798584 .011245728 .18199158 .011245728 .16899109 .0942688 .16899109 .10028076 .16899109 .10227966 .16899109 .104278568 .17199707 .11628723L.22099304 .3123474Z"/>
<path id="font_2_1" d="M.6589966 .23046875C.6759949 .23046875 .69400027 .23046875 .69400027 .25045777 .69400027 .27046205 .6759949 .27046205 .6589966 .27046205H.117996219C.100997928 .27046205 .08299255 .27046205 .08299255 .25045777 .08299255 .23046875 .100997928 .23046875 .117996219 .23046875H.6589966Z"/>
</defs>
<path transform="matrix(1.00009,0,0,-1.00003,1.0964737,3.9206668)" stroke-width=".3985" stroke-linecap="butt" stroke-miterlimit="10" stroke-linejoin="miter" fill="none" stroke="#000000" d="M0 0H311.8149"/>
<path transform="matrix(1.00009,0,0,-1.00003,1.0964737,3.9206668)" d="M31.18166 0C31.18166 1.56564 29.91246 2.83484 28.3468 2.83484 26.78114 2.83484 25.51195 1.56564 25.51195 0 25.51195-1.56564 26.78114-2.83484 28.3468-2.83484 29.91246-2.83484 31.18166-1.56564 31.18166 0ZM28.3468 0" fill="#0000ff"/>
<path transform="matrix(1.00009,0,0,-1.00003,1.0964737,3.9206668)" d="M87.87527 0C87.87527 1.56564 86.60608 2.83484 85.04042 2.83484 83.47478 2.83484 82.20557 1.56564 82.20557 0 82.20557-1.56564 83.47478-2.83484 85.04042-2.83484 86.60608-2.83484 87.87527-1.56564 87.87527 0ZM85.04042 0" fill="#0000ff"/>
<path transform="matrix(1.00009,0,0,-1.00003,1.0964737,3.9206668)" d="M144.5689 0C144.5689 1.56564 143.2997 2.83484 141.73404 2.83484 140.1684 2.83484 138.89919 1.56564 138.89919 0 138.89919-1.56564 140.1684-2.83484 141.73404-2.83484 143.2997-2.83484 144.5689-1.56564 144.5689 0ZM141.73404 0" fill="#0000ff"/>
<path transform="matrix(1.00009,0,0,-1.00003,1.0964737,3.9206668)" d="M201.26251 0C201.26251 1.56564 199.99332 2.83484 198.42766 2.83484 196.86202 2.83484 195.59282 1.56564 195.59282 0 195.59282-1.56564 196.86202-2.83484 198.42766-2.83484 199.99332-2.83484 201.26251-1.56564 201.26251 0ZM198.42766 0" fill="#0000ff"/>
<path transform="matrix(1.00009,0,0,-1.00003,1.0964737,3.9206668)" d="M257.95613 0C257.95613 1.56564 256.68696 2.83484 255.12128 2.83484 253.55564 2.83484 252.28644 1.56564 252.28644 0 252.28644-1.56564 253.55564-2.83484 255.12128-2.83484 256.68696-2.83484 257.95613-1.56564 257.95613 0ZM255.12128 0" fill="#0000ff"/>
<path transform="matrix(1.00009,0,0,-1.00003,1.0964737,3.9206668)" d="M286.30296 0C286.30296 1.56564 285.03376 2.83484 283.4681 2.83484 281.90245 2.83484 280.63325 1.56564 280.63325 0 280.63325-1.56564 281.90245-2.83484 283.4681-2.83484 285.03376-2.83484 286.30296-1.56564 286.30296 0ZM283.4681 0" fill="#0000ff"/>
<path transform="matrix(1.00009,0,0,-1.00003,1.0964737,3.9206668)" stroke-width=".3985" stroke-linecap="butt" stroke-miterlimit="10" stroke-linejoin="miter" fill="none" stroke="#000000" d="M56.69362 2.83484V-2.83484"/>
<path transform="matrix(1.00009,0,0,-1.00003,1.0964737,3.9206668)" stroke-width=".3985" stroke-linecap="butt" stroke-miterlimit="10" stroke-linejoin="miter" fill="none" stroke="#000000" d="M113.38724 2.83484V-2.83484"/>
<path transform="matrix(1.00009,0,0,-1.00003,1.0964737,3.9206668)" stroke-width=".3985" stroke-linecap="butt" stroke-miterlimit="10" stroke-linejoin="miter" fill="none" stroke="#000000" d="M170.08086 2.83484V-2.83484"/>
<path transform="matrix(1.00009,0,0,-1.00003,1.0964737,3.9206668)" stroke-width=".3985" stroke-linecap="butt" stroke-miterlimit="10" stroke-linejoin="miter" fill="none" stroke="#000000" d="M226.77448 2.83484V-2.83484"/>
<path transform="matrix(1.00009,0,0,-1.00003,1.0964737,3.9206668)" stroke-width=".3985" stroke-linecap="butt" stroke-miterlimit="10" stroke-linejoin="miter" fill="none" stroke="#000000" d=""/>
<use data-text="1" xlink:href="#font_1_1" transform="matrix(9.963496,0,0,-9.962899,26.954804,21.305188)"/>
<path transform="matrix(1.00009,0,0,-1.00003,1.0964737,3.9206668)" stroke-width=".3985" stroke-linecap="butt" stroke-miterlimit="10" stroke-linejoin="miter" fill="none" stroke="#000000" d=""/>
<use data-text="&#x00b7;" xlink:href="#font_2_2" transform="matrix(9.963496,0,0,-9.962899,79.50253,20.308159)"/>
<use data-text="&#x00b7;" xlink:href="#font_2_2" transform="matrix(9.963496,0,0,-9.962899,83.91637,20.308159)"/>
<use data-text="&#x00b7;" xlink:href="#font_2_2" transform="matrix(9.963496,0,0,-9.962899,88.34017,20.308159)"/>
<path transform="matrix(1.00009,0,0,-1.00003,1.0964737,3.9206668)" stroke-width=".3985" stroke-linecap="butt" stroke-miterlimit="10" stroke-linejoin="miter" fill="none" stroke="#000000" d=""/>
<use data-text="p" xlink:href="#font_3_1" transform="matrix(6.9744279,0,0,-6.9740097,135.68959,16.402043)"/>
<use data-text="&#x2212;" xlink:href="#font_4_1" transform="matrix(6.9744279,0,0,-6.9740097,139.79697,16.402043)"/>
<use data-text="1" xlink:href="#font_5_2" transform="matrix(6.9744279,0,0,-6.9740097,146.02452,16.402043)"/>
<path transform="matrix(1.00009,0,0,-1.00003,51.391008,31.925509)" stroke-width=".3985" stroke-linecap="butt" stroke-miterlimit="10" stroke-linejoin="miter" fill="none" stroke="#000000" d="M84.291 13.569H98.596"/>
<use data-text="2" xlink:href="#font_5_3" transform="matrix(6.9744279,0,0,-6.9740097,140.85706,24.282279)"/>
<path transform="matrix(1.00009,0,0,-1.00003,1.0964737,3.9206668)" stroke-width=".3985" stroke-linecap="butt" stroke-miterlimit="10" stroke-linejoin="miter" fill="none" stroke="#000000" d=""/>
<use data-text="p" xlink:href="#font_3_1" transform="matrix(6.9744279,0,0,-6.9740097,169.1386,15.656021)"/>
<path transform="matrix(1.00009,0,0,-1.00003,84.84001,31.179488)" stroke-width=".3985" stroke-linecap="butt" stroke-miterlimit="10" stroke-linejoin="miter" fill="none" stroke="#000000" d="M84.291 13.569H88.398"/>
<use data-text="2" xlink:href="#font_5_3" transform="matrix(6.9744279,0,0,-6.9740097,169.2066,23.536257)"/>
<path transform="matrix(1.00009,0,0,-1.00003,1.0964737,3.9206668)" stroke-width=".3985" stroke-linecap="butt" stroke-miterlimit="10" stroke-linejoin="miter" fill="none" stroke="#000000" d=""/>
<use data-text="p" xlink:href="#font_3_1" transform="matrix(6.9744279,0,0,-6.9740097,192.44368,16.402043)"/>
<use data-text="+" xlink:href="#font_5_1" transform="matrix(6.9744279,0,0,-6.9740097,196.55106,16.402043)"/>
<use data-text="1" xlink:href="#font_5_2" transform="matrix(6.9744279,0,0,-6.9740097,202.66764,16.402043)"/>
<path transform="matrix(1.00009,0,0,-1.00003,108.145099,31.925509)" stroke-width=".3985" stroke-linecap="butt" stroke-miterlimit="10" stroke-linejoin="miter" fill="none" stroke="#000000" d="M84.291 13.569H98.486"/>
<use data-text="2" xlink:href="#font_5_3" transform="matrix(6.9744279,0,0,-6.9740097,197.55615,24.282279)"/>
<path transform="matrix(1.00009,0,0,-1.00003,1.0964737,3.9206668)" stroke-width=".3985" stroke-linecap="butt" stroke-miterlimit="10" stroke-linejoin="miter" fill="none" stroke="#000000" d=""/>
<use data-text="&#x00b7;" xlink:href="#font_2_2" transform="matrix(9.963496,0,0,-9.962899,249.59784,20.308159)"/>
<use data-text="&#x00b7;" xlink:href="#font_2_2" transform="matrix(9.963496,0,0,-9.962899,254.01169,20.308159)"/>
<use data-text="&#x00b7;" xlink:href="#font_2_2" transform="matrix(9.963496,0,0,-9.962899,258.4355,20.308159)"/>
<path transform="matrix(1.00009,0,0,-1.00003,1.0964737,3.9206668)" stroke-width=".3985" stroke-linecap="butt" stroke-miterlimit="10" stroke-linejoin="miter" fill="none" stroke="#000000" d=""/>
<use data-text="p" xlink:href="#font_6_1" transform="matrix(9.963496,0,0,-9.962899,273.50398,20.336163)"/>
<use data-text="&#x2212;" xlink:href="#font_2_1" transform="matrix(9.963496,0,0,-9.962899,280.73063,20.336163)"/>
<use data-text="1" xlink:href="#font_1_1" transform="matrix(9.963496,0,0,-9.962899,290.69453,20.336163)"/>
</svg>
